<mxfile host="app.diagrams.net" modified="2024-01-29T06:07:47.387Z" agent="Mozilla/5.0 (Macintosh; Intel Mac OS X 10_15_7) AppleWebKit/537.36 (KHTML, like Gecko) Chrome/120.0.0.0 Safari/537.36 Edg/120.0.0.0" version="22.1.21" etag="iHxkXHTFculBtyVoa5-b" type="github">
  <diagram name="第 1 页" id="LsgrndFN3Dl3Hn5f2vZp">
    <mxGraphModel>
      <root>
        <mxCell id="0" />
        <mxCell id="1" parent="0" />
      </root>
    </mxGraphModel>
  </diagram>
</mxfile>
